<svg width="32" height="32" viewBox="0 0 32 32" fill="none" xmlns="http://www.w3.org/2000/svg">
<rect width="32" height="32" rx="16" fill="#E4F2D1"/>
<path d="M8.58176 21H5.2856V10.8182H8.68617C9.6838 10.8182 10.5406 11.022 11.2565 11.4297C11.9724 11.834 12.5209 12.4157 12.9021 13.1747C13.2865 13.9304 13.4788 14.8369 13.4788 15.8942C13.4788 16.9548 13.2849 17.8662 12.8971 18.6286C12.5126 19.3909 11.9558 19.9775 11.2267 20.3885C10.4975 20.7962 9.61586 21 8.58176 21ZM6.82182 19.6577H8.49725C9.27282 19.6577 9.91747 19.5118 10.4312 19.2202C10.9449 18.9252 11.3294 18.4993 11.5846 17.9425C11.8398 17.3823 11.9674 16.6996 11.9674 15.8942C11.9674 15.0954 11.8398 14.4176 11.5846 13.8608C11.3327 13.304 10.9565 12.8814 10.4561 12.593C9.95558 12.3047 9.33413 12.1605 8.59171 12.1605H6.82182V19.6577ZM17.2597 21L14.4358 10.8182H16.0516L18.0352 18.7031H18.1297L20.1929 10.8182H21.7938L23.857 18.7081H23.9514L25.9301 10.8182H27.5509L24.722 21H23.1759L21.0331 13.3736H20.9536L18.8108 21H17.2597Z" fill="#014342"/>
</svg>
