<svg width="79" height="22" viewBox="0 0 79 22" fill="none" xmlns="http://www.w3.org/2000/svg">
<g style="mix-blend-mode:multiply">
<rect width="79" height="22" rx="11" fill="#ECFDF3"/>
<path d="M13.748 8.56534C13.7026 8.16193 13.5151 7.84943 13.1855 7.62784C12.856 7.40341 12.4412 7.29119 11.9412 7.29119C11.5833 7.29119 11.2736 7.34801 11.0123 7.46165C10.7509 7.57244 10.5478 7.72585 10.4029 7.92188C10.2608 8.11506 10.1898 8.33523 10.1898 8.58239C10.1898 8.78977 10.2381 8.96875 10.3347 9.11932C10.4341 9.26989 10.5634 9.39631 10.7225 9.49858C10.8844 9.59801 11.0577 9.68182 11.2424 9.75C11.427 9.81534 11.6046 9.86932 11.775 9.91193L12.6273 10.1335C12.9057 10.2017 13.1912 10.294 13.4838 10.4105C13.7765 10.527 14.0478 10.6804 14.2978 10.8707C14.5478 11.0611 14.7495 11.2969 14.9029 11.5781C15.0591 11.8594 15.1373 12.196 15.1373 12.5881C15.1373 13.0824 15.0094 13.5213 14.7537 13.9048C14.5009 14.2884 14.133 14.5909 13.65 14.8125C13.1699 15.0341 12.589 15.1449 11.9071 15.1449C11.2537 15.1449 10.6884 15.0412 10.2111 14.8338C9.73384 14.6264 9.36026 14.3324 9.09038 13.9517C8.82049 13.5682 8.67134 13.1136 8.64293 12.5881H9.96396C9.98952 12.9034 10.0918 13.1662 10.2708 13.3764C10.4526 13.5838 10.6841 13.7386 10.9654 13.8409C11.2495 13.9403 11.5605 13.9901 11.8986 13.9901C12.2708 13.9901 12.6017 13.9318 12.8915 13.8153C13.1841 13.696 13.4142 13.5312 13.5819 13.321C13.7495 13.108 13.8333 12.8594 13.8333 12.5753C13.8333 12.3168 13.7594 12.1051 13.6117 11.9403C13.4668 11.7756 13.2694 11.6392 13.0194 11.5312C12.7722 11.4233 12.4924 11.3281 12.1799 11.2457L11.1486 10.9645C10.4498 10.7741 9.89577 10.4943 9.48668 10.125C9.08043 9.75568 8.87731 9.26705 8.87731 8.65909C8.87731 8.15625 9.01367 7.71733 9.2864 7.34233C9.55913 6.96733 9.92844 6.67614 10.3944 6.46875C10.8603 6.25852 11.3858 6.15341 11.9711 6.15341C12.562 6.15341 13.0833 6.2571 13.535 6.46449C13.9895 6.67188 14.3475 6.95739 14.6088 7.32102C14.8702 7.68182 15.0066 8.09659 15.0179 8.56534H13.748ZM20.7548 12.2855V8.45455H22.0332V15H20.7804V13.8665H20.7122C20.5616 14.2159 20.3201 14.5071 19.9877 14.7401C19.6582 14.9702 19.2477 15.0852 18.7562 15.0852C18.3358 15.0852 17.9636 14.9929 17.6397 14.8082C17.3187 14.6207 17.0659 14.3438 16.8812 13.9773C16.6994 13.6108 16.6085 13.1577 16.6085 12.6179V8.45455H17.8826V12.4645C17.8826 12.9105 18.0062 13.2656 18.2534 13.5298C18.5005 13.794 18.8216 13.9261 19.2164 13.9261C19.4551 13.9261 19.6923 13.8665 19.9281 13.7472C20.1667 13.6278 20.3642 13.4474 20.5204 13.206C20.6795 12.9645 20.7576 12.6577 20.7548 12.2855ZM26.5023 15.1321C25.8688 15.1321 25.3233 14.9886 24.8659 14.7017C24.4114 14.4119 24.062 14.0128 23.8176 13.5043C23.5733 12.9957 23.4512 12.4134 23.4512 11.7571C23.4512 11.0923 23.5762 10.5057 23.8262 9.99716C24.0762 9.4858 24.4284 9.08665 24.883 8.79972C25.3375 8.51278 25.873 8.36932 26.4895 8.36932C26.9867 8.36932 27.4299 8.46165 27.8191 8.64631C28.2083 8.82812 28.5222 9.08381 28.7608 9.41335C29.0023 9.7429 29.1458 10.1278 29.1912 10.5682H27.9512C27.883 10.2614 27.7267 9.99716 27.4824 9.77557C27.2409 9.55398 26.9171 9.44318 26.5108 9.44318C26.1557 9.44318 25.8446 9.53693 25.5776 9.72443C25.3134 9.90909 25.1074 10.1733 24.9597 10.517C24.812 10.858 24.7381 11.2614 24.7381 11.7273C24.7381 12.2045 24.8105 12.6165 24.9554 12.9631C25.1003 13.3097 25.3049 13.5781 25.5691 13.7685C25.8361 13.9588 26.15 14.054 26.5108 14.054C26.7523 14.054 26.9711 14.0099 27.1671 13.9219C27.3659 13.831 27.5321 13.7017 27.6657 13.5341C27.802 13.3665 27.8972 13.1648 27.9512 12.929H29.1912C29.1458 13.3523 29.008 13.7301 28.7779 14.0625C28.5478 14.3949 28.2395 14.6562 27.8532 14.8466C27.4696 15.0369 27.0194 15.1321 26.5023 15.1321ZM33.3109 15.1321C32.6774 15.1321 32.1319 14.9886 31.6745 14.7017C31.22 14.4119 30.8706 14.0128 30.6262 13.5043C30.3819 12.9957 30.2598 12.4134 30.2598 11.7571C30.2598 11.0923 30.3848 10.5057 30.6348 9.99716C30.8848 9.4858 31.237 9.08665 31.6916 8.79972C32.1461 8.51278 32.6816 8.36932 33.2981 8.36932C33.7953 8.36932 34.2385 8.46165 34.6277 8.64631C35.0169 8.82812 35.3308 9.08381 35.5694 9.41335C35.8109 9.7429 35.9544 10.1278 35.9998 10.5682H34.7598C34.6916 10.2614 34.5353 9.99716 34.291 9.77557C34.0495 9.55398 33.7257 9.44318 33.3194 9.44318C32.9643 9.44318 32.6532 9.53693 32.3862 9.72443C32.122 9.90909 31.916 10.1733 31.7683 10.517C31.6206 10.858 31.5467 11.2614 31.5467 11.7273C31.5467 12.2045 31.6191 12.6165 31.764 12.9631C31.9089 13.3097 32.1135 13.5781 32.3777 13.7685C32.6447 13.9588 32.9586 14.054 33.3194 14.054C33.5609 14.054 33.7797 14.0099 33.9757 13.9219C34.1745 13.831 34.3407 13.7017 34.4743 13.5341C34.6106 13.3665 34.7058 13.1648 34.7598 12.929H35.9998C35.9544 13.3523 35.8166 13.7301 35.5865 14.0625C35.3564 14.3949 35.0481 14.6562 34.6618 14.8466C34.2782 15.0369 33.8279 15.1321 33.3109 15.1321ZM40.1834 15.1321C39.5385 15.1321 38.9831 14.9943 38.5172 14.7188C38.0542 14.4403 37.6962 14.0497 37.4434 13.5469C37.1934 13.0412 37.0684 12.4489 37.0684 11.7699C37.0684 11.0994 37.1934 10.5085 37.4434 9.99716C37.6962 9.4858 38.0485 9.08665 38.5002 8.79972C38.9547 8.51278 39.486 8.36932 40.0939 8.36932C40.4632 8.36932 40.8212 8.4304 41.1678 8.55256C41.5144 8.67472 41.8255 8.86648 42.101 9.12784C42.3766 9.3892 42.5939 9.72869 42.753 10.1463C42.9121 10.5611 42.9917 11.0653 42.9917 11.6591V12.1108H37.7885V11.1562H41.7431C41.7431 10.821 41.6749 10.5241 41.5385 10.2656C41.4022 10.0043 41.2104 9.7983 40.9632 9.64773C40.7189 9.49716 40.432 9.42188 40.1025 9.42188C39.7445 9.42188 39.432 9.50994 39.165 9.68608C38.9007 9.85937 38.6962 10.0866 38.5513 10.3679C38.4093 10.6463 38.3382 10.9489 38.3382 11.2756V12.0213C38.3382 12.4588 38.415 12.831 38.5684 13.1378C38.7246 13.4446 38.9419 13.679 39.2203 13.8409C39.4988 14 39.824 14.0795 40.1962 14.0795C40.4377 14.0795 40.6578 14.0455 40.8567 13.9773C41.0556 13.9062 41.2275 13.8011 41.3723 13.6619C41.5172 13.5227 41.628 13.3509 41.7047 13.1463L42.9107 13.3636C42.8141 13.7187 42.6408 14.0298 42.3908 14.2969C42.1436 14.5611 41.8326 14.767 41.4576 14.9148C41.0854 15.0597 40.6607 15.1321 40.1834 15.1321ZM49.3102 10.0526L48.1554 10.2571C48.1071 10.1094 48.0304 9.96875 47.9252 9.83523C47.823 9.7017 47.6838 9.59233 47.5076 9.5071C47.3315 9.42187 47.1113 9.37926 46.8471 9.37926C46.4863 9.37926 46.1852 9.46023 45.9437 9.62216C45.7022 9.78125 45.5815 9.98722 45.5815 10.2401C45.5815 10.4588 45.6625 10.6349 45.8244 10.7685C45.9863 10.902 46.2477 11.0114 46.6085 11.0966L47.6483 11.3352C48.2505 11.4744 48.6994 11.6889 48.9949 11.9787C49.2903 12.2685 49.438 12.6449 49.438 13.108C49.438 13.5 49.3244 13.8494 49.0971 14.1562C48.8727 14.4602 48.5588 14.6989 48.1554 14.8722C47.7548 15.0455 47.2903 15.1321 46.7619 15.1321C46.0289 15.1321 45.4309 14.9759 44.9679 14.6634C44.5048 14.348 44.2207 13.9006 44.1156 13.321L45.3471 13.1335C45.4238 13.4545 45.5815 13.6974 45.8201 13.8622C46.0588 14.0241 46.3699 14.1051 46.7534 14.1051C47.171 14.1051 47.5048 14.0185 47.7548 13.8452C48.0048 13.669 48.1298 13.4545 48.1298 13.2017C48.1298 12.9972 48.0531 12.8253 47.8997 12.6861C47.7491 12.5469 47.5176 12.4418 47.2051 12.3707L46.0971 12.1278C45.4863 11.9886 45.0346 11.767 44.742 11.4631C44.4522 11.1591 44.3074 10.7741 44.3074 10.3082C44.3074 9.92187 44.4153 9.58381 44.6312 9.29403C44.8471 9.00426 45.1454 8.77841 45.5261 8.61648C45.9068 8.4517 46.3429 8.36932 46.8343 8.36932C47.5417 8.36932 48.0985 8.52273 48.5048 8.82955C48.911 9.13352 49.1795 9.54119 49.3102 10.0526ZM55.7438 10.0526L54.589 10.2571C54.5407 10.1094 54.464 9.96875 54.3588 9.83523C54.2566 9.7017 54.1174 9.59233 53.9412 9.5071C53.7651 9.42187 53.5449 9.37926 53.2807 9.37926C52.9199 9.37926 52.6188 9.46023 52.3773 9.62216C52.1358 9.78125 52.0151 9.98722 52.0151 10.2401C52.0151 10.4588 52.0961 10.6349 52.258 10.7685C52.4199 10.902 52.6813 11.0114 53.0421 11.0966L54.0819 11.3352C54.6841 11.4744 55.133 11.6889 55.4284 11.9787C55.7239 12.2685 55.8716 12.6449 55.8716 13.108C55.8716 13.5 55.758 13.8494 55.5307 14.1562C55.3063 14.4602 54.9924 14.6989 54.589 14.8722C54.1884 15.0455 53.7239 15.1321 53.1955 15.1321C52.4625 15.1321 51.8645 14.9759 51.4015 14.6634C50.9384 14.348 50.6543 13.9006 50.5492 13.321L51.7807 13.1335C51.8574 13.4545 52.0151 13.6974 52.2537 13.8622C52.4924 14.0241 52.8034 14.1051 53.187 14.1051C53.6046 14.1051 53.9384 14.0185 54.1884 13.8452C54.4384 13.669 54.5634 13.4545 54.5634 13.2017C54.5634 12.9972 54.4867 12.8253 54.3333 12.6861C54.1827 12.5469 53.9512 12.4418 53.6387 12.3707L52.5307 12.1278C51.9199 11.9886 51.4682 11.767 51.1756 11.4631C50.8858 11.1591 50.7409 10.7741 50.7409 10.3082C50.7409 9.92187 50.8489 9.58381 51.0648 9.29403C51.2807 9.00426 51.579 8.77841 51.9597 8.61648C52.3404 8.4517 52.7765 8.36932 53.2679 8.36932C53.9753 8.36932 54.5321 8.52273 54.9384 8.82955C55.3446 9.13352 55.6131 9.54119 55.7438 10.0526ZM60.3876 8.45455V9.47727H56.6887V8.45455H60.3876ZM57.7029 15V7.69602C57.7029 7.28693 57.7924 6.94744 57.9714 6.67756C58.1504 6.40483 58.3876 6.2017 58.6831 6.06818C58.9785 5.93182 59.2995 5.86364 59.6461 5.86364C59.9018 5.86364 60.1206 5.88494 60.3024 5.92756C60.4842 5.96733 60.6191 6.00426 60.7072 6.03835L60.4089 7.0696C60.3493 7.05256 60.2725 7.03267 60.1788 7.00994C60.085 6.98437 59.9714 6.97159 59.8379 6.97159C59.5282 6.97159 59.3066 7.0483 59.1731 7.2017C59.0424 7.35511 58.9771 7.5767 58.9771 7.86648V15H57.7029ZM65.8485 12.2855V8.45455H67.127V15H65.8741V13.8665H65.8059C65.6554 14.2159 65.4139 14.5071 65.0815 14.7401C64.752 14.9702 64.3414 15.0852 63.85 15.0852C63.4295 15.0852 63.0574 14.9929 62.7335 14.8082C62.4125 14.6207 62.1596 14.3438 61.975 13.9773C61.7931 13.6108 61.7022 13.1577 61.7022 12.6179V8.45455H62.9764V12.4645C62.9764 12.9105 63.1 13.2656 63.3471 13.5298C63.5943 13.794 63.9153 13.9261 64.3102 13.9261C64.5488 13.9261 64.786 13.8665 65.0218 13.7472C65.2605 13.6278 65.4579 13.4474 65.6142 13.206C65.7733 12.9645 65.8514 12.6577 65.8485 12.2855ZM70.1131 6.27273V15H68.839V6.27273H70.1131Z" fill="#027A48"/>
</g>
</svg>
