<svg width="18" height="18" viewBox="0 0 18 18" fill="none" xmlns="http://www.w3.org/2000/svg">
<mask id="mask0_9_8764" style="mask-type:alpha" maskUnits="userSpaceOnUse" x="0" y="0" width="18" height="18">
<rect y="18" width="18" height="18" transform="rotate(-90 0 18)" fill="#D9D9D9"/>
</mask>
<g mask="url(#mask0_9_8764)">
<path d="M15.3498 6.6625L9.19982 12.8312C9.12482 12.8937 9.05282 12.9375 8.98382 12.9625C8.91532 12.9875 8.84357 13 8.76857 13C8.69357 13 8.62157 12.9875 8.55257 12.9625C8.48407 12.9375 8.41232 12.8937 8.33732 12.8312L2.16857 6.64375C2.05607 6.54375 1.99982 6.41875 1.99982 6.26875C1.99982 6.11875 2.06232 5.9875 2.18732 5.875C2.29982 5.7625 2.43407 5.70625 2.59007 5.70625C2.74657 5.70625 2.87482 5.7625 2.97482 5.875L8.76857 11.65L14.5623 5.85625C14.6748 5.74375 14.8028 5.6875 14.9463 5.6875C15.0903 5.6875 15.2248 5.75 15.3498 5.875C15.4623 5.9875 15.5186 6.11875 15.5186 6.26875C15.5186 6.41875 15.4623 6.55 15.3498 6.6625Z" fill="#555555"/>
</g>
</svg>
